<?xml version="1.0" standalone="no"?>
<!DOCTYPE svg PUBLIC "-//W3C//DTD SVG 20010904//EN"
 "http://www.w3.org/TR/2001/REC-SVG-20010904/DTD/svg10.dtd">
<svg version="1.0" xmlns="http://www.w3.org/2000/svg"
 width="512.000000pt" height="512.000000pt" viewBox="0 0 512.000000 512.000000"
 preserveAspectRatio="xMidYMid meet">

<g transform="translate(0.000000,512.000000) scale(0.100000,-0.100000)"
fill="#000000" stroke="none">
<path d="M0 2560 l0 -2560 2560 0 2560 0 0 2560 0 2560 -2560 0 -2560 0 0
-2560z m2181 1423 c98 -100 112 -120 98 -145 -17 -32 -42 -19 -126 64 l-83 83
-52 -53 -53 -52 778 -778 c427 -427 777 -785 777 -794 0 -16 -27 -38 -47 -38
-4 0 -369 361 -810 802 l-803 803 -51 -52 -52 -51 229 -317 c126 -174 246
-341 267 -371 l39 -56 68 66 c37 36 74 66 82 66 15 0 178 -161 178 -175 0 -12
-31 -45 -42 -45 -6 0 -39 28 -74 62 l-65 62 -94 -94 -94 -95 24 -70 c32 -93
32 -139 -3 -208 l-28 -56 80 -79 81 -79 42 24 c65 37 124 40 213 10 l75 -26
95 95 95 94 -123 123 c-100 100 -123 129 -120 148 2 16 11 25 27 27 19 3 51
-23 167 -139 79 -79 144 -150 144 -159 0 -8 -30 -44 -66 -81 l-65 -66 371
-268 372 -268 51 51 51 51 -77 80 c-42 43 -77 82 -77 86 0 18 23 45 38 45 9 0
40 -24 69 -52 l53 -53 53 53 52 52 -748 748 c-411 411 -747 754 -747 763 0 19
20 39 39 39 9 0 359 -343 778 -762 601 -601 763 -768 763 -788 0 -17 -20 -45
-67 -92 -64 -64 -66 -68 -50 -86 9 -10 17 -25 17 -33 0 -22 -151 -167 -182
-174 -14 -4 -36 -1 -49 6 -22 11 -240 167 -519 370 -159 115 -237 169 -246
169 -3 0 -19 -11 -36 -25 -36 -31 -79 -32 -148 -5 -75 30 -127 26 -184 -11
-33 -22 -55 -30 -76 -27 -26 4 -39 -6 -117 -84 -68 -69 -85 -90 -75 -100 7 -7
12 -19 12 -28 0 -16 -249 -270 -265 -270 -5 0 -68 59 -141 131 l-133 132 22
28 c11 16 25 29 31 29 6 0 59 -48 118 -107 l107 -107 26 24 26 24 -68 70 c-38
39 -86 90 -108 114 l-39 42 30 31 31 31 103 -106 c57 -58 108 -106 113 -106 6
0 19 8 29 17 18 16 15 21 -89 125 -90 90 -106 111 -97 125 19 31 42 39 65 24
20 -12 28 -7 110 75 78 77 87 91 82 115 -4 21 3 40 26 75 37 57 41 109 11 184
-28 72 -26 112 9 152 l29 33 -156 215 c-397 549 -392 541 -392 585 0 36 7 46
77 117 43 43 84 78 92 78 8 0 23 -8 33 -17 18 -16 22 -14 86 50 47 47 74 67
92 67 19 0 48 -23 111 -87z m-413 -2084 c106 -109 122 -130 114 -146 -20 -36
-242 -243 -261 -243 -21 0 -271 234 -271 253 0 14 41 57 53 57 6 0 58 -47 117
-105 l106 -105 24 25 24 26 -102 102 c-56 56 -102 110 -102 119 0 9 12 26 27
38 l27 21 108 -108 108 -108 22 23 23 22 -103 103 c-56 56 -102 106 -102 112
0 17 43 54 54 47 6 -4 67 -64 134 -133z m-444 -218 c21 -23 18 -30 -41 -84
-72 -67 -89 -117 -58 -177 39 -76 137 -78 204 -6 24 25 24 26 6 46 -24 27 -36
25 -70 -10 -36 -38 -78 -38 -83 -1 -3 18 10 38 54 82 32 33 64 59 72 59 16 0
152 -130 152 -146 0 -6 -31 -40 -68 -76 -98 -92 -159 -107 -250 -62 -41 20
-59 37 -82 78 -51 87 -36 158 53 253 63 67 83 75 111 44z"/>
<path d="M2130 2355 l-85 -85 43 -42 42 -43 85 85 c47 46 85 89 85 95 0 14
-62 75 -76 75 -5 0 -48 -38 -94 -85z"/>
</g>
</svg>
